<svg width="35" height="35" viewBox="0 0 35 35" fill="none" xmlns="http://www.w3.org/2000/svg">
<g clip-path="url(#clip0)">
<path d="M2.18757 2.38152C-0.56285 5.23839 6.67945e-05 8.27318 6.67945e-05 17.4928C6.67945e-05 25.149 -1.33577 32.8242 5.65548 34.6311C7.83861 35.1926 27.1819 35.1926 29.3622 34.6282C32.273 33.8771 34.6413 31.5161 34.9651 27.3992C35.0103 26.8246 35.0103 8.1711 34.9636 7.58485C34.6194 3.19964 31.9201 0.672349 28.3632 0.160474C27.548 0.0423492 27.3847 0.00734916 23.2022 5.74887e-05C8.36652 0.00734916 5.11444 -0.653276 2.18757 2.38152Z" fill="url(#paint0_linear)"/>
<path d="M17.497 4.57766C12.2018 4.57766 7.17343 4.10662 5.25281 9.03578C4.45948 11.0716 4.57468 13.7156 4.57468 17.5014C4.57468 20.8235 4.46823 23.9458 5.25281 25.9656C7.16906 30.8977 12.2382 30.4252 17.4941 30.4252C22.5647 30.4252 27.7928 30.9531 29.7368 25.9656C30.5316 23.9093 30.4149 21.3047 30.4149 17.5014C30.4149 12.4527 30.6934 9.19328 28.2449 6.7462C25.7657 4.26703 22.413 4.57766 17.4911 4.57766H17.497ZM16.3391 6.90662C27.3845 6.88912 28.7903 5.6612 28.0145 22.7193C27.7389 28.7525 23.1451 28.0904 17.4984 28.0904C7.2026 28.0904 6.90656 27.7958 6.90656 17.4956C6.90656 7.07578 7.72323 6.91245 16.3391 6.9037V6.90662ZM24.3949 9.05182C23.5389 9.05182 22.8447 9.74599 22.8447 10.602C22.8447 11.4581 23.5389 12.1522 24.3949 12.1522C25.2509 12.1522 25.9451 11.4581 25.9451 10.602C25.9451 9.74599 25.2509 9.05182 24.3949 9.05182ZM17.497 10.8645C13.8322 10.8645 10.8616 13.8366 10.8616 17.5014C10.8616 21.1662 13.8322 24.1368 17.497 24.1368C21.1618 24.1368 24.1309 21.1662 24.1309 17.5014C24.1309 13.8366 21.1618 10.8645 17.497 10.8645ZM17.497 13.1935C23.1918 13.1935 23.1991 21.8093 17.497 21.8093C11.8036 21.8093 11.7949 13.1935 17.497 13.1935Z" fill="white"/>
</g>
<defs>
<linearGradient id="paint0_linear" x1="2.25468" y1="32.7646" x2="34.7835" y2="4.61127" gradientUnits="userSpaceOnUse">
<stop stop-color="#FFDD55"/>
<stop offset="0.5" stop-color="#FF543E"/>
<stop offset="1" stop-color="#C837AB"/>
</linearGradient>
<clipPath id="clip0">
<rect width="35" height="35" fill="white"/>
</clipPath>
</defs>
</svg>
