<svg id="Основной_слой" data-name="Основной слой" xmlns="http://www.w3.org/2000/svg" viewBox="0 0 1920 1080">
    <defs>
        <style>.cls-1{fill:#e1aa54;}</style>
    </defs>
    <path class="cls-1"
          d="M324.37,720.3l23.17,119q10.57-2.05,16.09-7.15t7.26-13.92q1.73-8.84,0-21.78t-5.18-30.8l-10-51.49,23.5-4.57,11.24,57.73q2.78,14.28,4.29,27.27a85.73,85.73,0,0,1-.37,24.16,44.49,44.49,0,0,1-5.51,15.59,24.23,24.23,0,0,1,11.86,5.57,17.88,17.88,0,0,1,5.84,10.14l13.21,67.85-23.51,4.57L383.52,857a5.26,5.26,0,0,0-3.17-3.7,8.91,8.91,0,0,0-5.83-.72L351,857.18l13.9,71.43-23.5,4.57L300.86,724.87Z"/>
    <path class="cls-1"
          d="M416,702.45,438,698.18q11.76-2.29,21.2,2.36t11.18,13.57l32.21,165.46q1.74,8.92-5.27,16.78t-18.76,10.14l-21.94,4.27q-11.76,2.28-21.2-2.36t-11.18-13.58L392,729.37q-1.74-8.94,5.27-16.78T416,702.45Zm40.22,189.84,15.67-3a9,9,0,0,0,5.13-2.85,5.26,5.26,0,0,0,1.54-4.63L447.31,721.07a5.28,5.28,0,0,0-3.17-3.71,9,9,0,0,0-5.83-.72l-15.67,3.05a8.94,8.94,0,0,0-5.13,2.86,5.23,5.23,0,0,0-1.54,4.62l31.29,160.7a5.21,5.21,0,0,0,3.16,3.7A8.92,8.92,0,0,0,456.25,892.29Z"/>
    <path class="cls-1"
          d="M516.22,880.61a8.93,8.93,0,0,0,5.14-2.85,5.26,5.26,0,0,0,1.54-4.62L487,688.64l70.51-13.73,40.56,208.31-23.51,4.57L537.46,697.34,514,701.91l32.91,169q1.74,8.92-5.28,16.78t-18.76,10.14l-11,2.14-3.47-17.86Z"/>
    <path class="cls-1"
          d="M566.19,673.22,644.53,658,648,675.81l-54.84,10.68,19.7,101.18L656,779.28l3.48,17.86-43.1,8.39,10.43,53.56,54.85-10.68,3.47,17.86-78.35,15.25Z"/>
    <path class="cls-1"
          d="M689.54,843.16,657.32,677.71q-1.73-8.93,5.28-16.78t18.76-10.14l21.94-4.27q11.75-2.29,21.19,2.36t11.18,13.57l1.63,8.33-23.51,4.58-1.16-6a5.26,5.26,0,0,0-3.16-3.71,9.05,9.05,0,0,0-5.83-.72L688,668a8.93,8.93,0,0,0-5.14,2.85,5.27,5.27,0,0,0-1.54,4.62l31.29,160.7a5.26,5.26,0,0,0,3.16,3.71,9,9,0,0,0,5.83.71l15.67-3a9,9,0,0,0,5.14-2.85,5.26,5.26,0,0,0,1.54-4.63l-1.16-6,23.51-4.57,1.62,8.33q1.74,8.93-5.27,16.78t-18.77,10.14l-21.93,4.27q-11.76,2.28-21.2-2.36T689.54,843.16Z"/>
    <path class="cls-1"
          d="M766.56,634.2l21.94-4.27q11.76-2.29,21.2,2.36t11.18,13.57l32.21,165.46q1.74,8.92-5.27,16.78t-18.76,10.14l-21.94,4.27q-11.76,2.28-21.2-2.36t-11.18-13.58L742.53,661.12q-1.74-8.93,5.27-16.78T766.56,634.2ZM806.78,824l15.67-3a9,9,0,0,0,5.13-2.85,5.24,5.24,0,0,0,1.54-4.62l-31.28-160.7a5.28,5.28,0,0,0-3.17-3.71,9,9,0,0,0-5.83-.72l-15.67,3.06A8.93,8.93,0,0,0,768,654.3a5.26,5.26,0,0,0-1.53,4.62l31.28,160.7a5.28,5.28,0,0,0,3.17,3.71A9,9,0,0,0,806.78,824Z"/>
    <path class="cls-1"
          d="M888.59,667.89,882,634q-1.74-8.94,5.27-16.78T906,607.05L982.8,592.1q11.76-2.29,21.2,2.36T1015.18,608l6.43,33q3,15.18,4.87,29.17a78.87,78.87,0,0,1-.31,25.54q-5.75,31.08-43.35,38.4l13.9,71.42-23.5,4.58-13.91-71.42q-37.6,7.32-54.59-19.33a77.71,77.71,0,0,1-9.78-23.11Q891.53,683.07,888.59,667.89Zm22.76-8.45q3.46,17.87,6.75,30.5t8.19,20.18q4.92,7.54,12,10.19t17.6.58l-19.7-101.17-23.51,4.57a8.94,8.94,0,0,0-5.13,2.86,5.23,5.23,0,0,0-1.54,4.62Zm48.29-44.3,19.7,101.18q10.57-2.07,16.09-7.15t7.26-13.92q1.72-8.84,0-21.78t-5.18-30.8L992.14,615a5.26,5.26,0,0,0-3.16-3.71,9,9,0,0,0-5.83-.72Z"/>
    <path class="cls-1"
          d="M1047.83,579.44l21.94-4.27q11.76-2.29,21.2,2.36t11.18,13.57l32.21,165.46q1.74,8.93-5.27,16.77t-18.76,10.14l-21.94,4.28q-11.76,2.28-21.2-2.36T1056,771.81L1023.8,606.35q-1.74-8.93,5.27-16.77T1047.83,579.44Zm40.22,189.84,15.67-3a9,9,0,0,0,5.13-2.85,5.26,5.26,0,0,0,1.54-4.63l-31.28-160.69a5.26,5.26,0,0,0-3.17-3.71,8.91,8.91,0,0,0-5.83-.72l-15.67,3a8.94,8.94,0,0,0-5.13,2.86,5.23,5.23,0,0,0-1.54,4.62l31.29,160.69a5.22,5.22,0,0,0,3.16,3.71A8.92,8.92,0,0,0,1088.05,769.28Z"/>
    <path class="cls-1"
          d="M1156.81,558.22q11.76-2.29,21.2,2.36t11.18,13.57l6.2,31.84q3,15.48,5,29.77a82.76,82.76,0,0,1-.19,26.13q-6.14,31.15-43.35,38.4l13.91,71.42-23.51,4.58L1106.67,568Zm14.73,50.57-5.39-27.68a5.26,5.26,0,0,0-3.16-3.71,9.06,9.06,0,0,0-5.83-.72l-23.51,4.58,19.7,101.18q10.58-2.07,16.09-7.15t7.26-13.92q1.72-8.83,0-21.78T1171.54,608.79Z"/>
    <path class="cls-1"
          d="M1196.25,569.07l-3.47-17.85L1271.13,536l3.47,17.86-27.42,5.34,37.08,190.45-23.5,4.58-37.09-190.46Z"/>
    <path class="cls-1"
          d="M1302.58,529.84l10,51.48q3.47,17.85,6.75,30.5t8.19,20.18q4.92,7.53,12,10.18t17.6.59l-23.18-119,23.51-4.58L1393.81,706q1.74,8.93-5.27,16.78T1369.78,733l-21.94,4.27q-11.74,2.29-21.19-2.36t-11.19-13.57l-1.62-8.34,23.51-4.57,1.15,6a5.28,5.28,0,0,0,3.17,3.71,9,9,0,0,0,5.83.71l15.67-3a8.91,8.91,0,0,0,5.13-2.85,5.23,5.23,0,0,0,1.54-4.62l-9.27-47.62q-37.6,7.32-54.58-19.33a73.92,73.92,0,0,1-9.7-22.66q-3.37-13.1-6.26-28l-11-56.25Z"/>
    <path class="cls-1"
          d="M1366.12,517.47l23.51-4.58,23.17,119,31.34-6.1-23.17-119,23.5-4.58,23.18,119L1485,710.52l-23.51,4.58-13.9-71.42-31.34,6.1,13.9,71.42-23.5,4.57Z"/>
    <path class="cls-1"
          d="M1543.87,699.06l-50.15,9.77-40.55-208.31,23.5-4.58,23.18,119,26.63-5.19q11.76-2.29,21.2,2.36t11.18,13.57l9,46.43q1.74,8.93-5.27,16.77T1543.87,699.06Zm-30.12-12.67,23.51-4.57a9,9,0,0,0,5.13-2.85,5.26,5.26,0,0,0,1.54-4.63l-8.11-41.66a5.28,5.28,0,0,0-3.16-3.71,9.06,9.06,0,0,0-5.83-.72l-23.51,4.58ZM1552,479.69l23.5-4.58,40.56,208.31-23.5,4.58Z"/>
    <rect class="cls-1" x="325.7" y="828.51" width="1319.44" height="23.82"
          transform="translate(-142.45 203.82) rotate(-11.02)"/>
    <rect class="cls-1" x="274.86" y="556.95" width="1319.44" height="23.82"
          transform="translate(-91.49 189.1) rotate(-11.02)"/>
    <path class="cls-1"
          d="M1354.48,780.7c-74.22,127.17-212.11,212.65-370,212.69A426.39,426.39,0,0,1,722.22,903.8l-20.36,4A440.74,440.74,0,0,0,985,1010.07c168.68-.06,315.28-94.49,389.91-233.35Z"/>
    <path class="cls-1"
          d="M1402.86,771.28c-76.33,153.84-235,259.61-418.39,259.67a465.16,465.16,0,0,1-310.2-117.82l-20.93,4.08A480.86,480.86,0,0,0,985,1049.12c194.86-.06,362.7-115.62,438.82-281.92Z"/>
    <path class="cls-1"
          d="M846.9,76.94q1.41-6.54-.92-9.34c-1.55-1.85-4-2.31-7.41-1.36l-14.08,3.93.9-17.38,9.52-2.66q7.68-2.15,13.63-.74a17.65,17.65,0,0,1,9.6,5.66A22.49,22.49,0,0,1,863,65.85a36.94,36.94,0,0,1-.6,14.66L856.16,108c-.51,2.19-.9,4.16-1.16,5.89a34.32,34.32,0,0,0-.41,5.09,29.64,29.64,0,0,0,.44,5.08,60.5,60.5,0,0,0,1.39,6l23.33-6.53,0,17.43-35.19,9.85q-2.55-9.1-3.93-15.3a81.73,81.73,0,0,1-1.78-11.14,48.07,48.07,0,0,1,.11-9.4,98.6,98.6,0,0,1,1.75-10.08Z"/>
    <path class="cls-1"
          d="M873.91,89.08a52.8,52.8,0,0,1,1.44-20.75,50.67,50.67,0,0,1,8.47-17.18,46.44,46.44,0,0,1,14.1-12.24,50.23,50.23,0,0,1,37.76-4.44,46.22,46.22,0,0,1,16.55,8.63,50.64,50.64,0,0,1,12.23,14.75,52.91,52.91,0,0,1,6.22,19.85,52.85,52.85,0,0,1-1.44,20.76,50.78,50.78,0,0,1-8.48,17.18,46.23,46.23,0,0,1-14.09,12.23,50.27,50.27,0,0,1-37.77,4.44,46.22,46.22,0,0,1-16.55-8.63,50.75,50.75,0,0,1-12.23-14.74A52.89,52.89,0,0,1,873.91,89.08Zm16-1.88a35.49,35.49,0,0,0,4.15,13.29,33.57,33.57,0,0,0,8.18,9.82,31.34,31.34,0,0,0,11.1,5.79,32,32,0,0,0,12.93,1,31.72,31.72,0,0,0,21.66-12.2,33.61,33.61,0,0,0,5.67-11.46,37.45,37.45,0,0,0-3.18-27.09,33.46,33.46,0,0,0-8.18-9.9,32.28,32.28,0,0,0-45.7,5.37,33.42,33.42,0,0,0-5.67,11.53A35.62,35.62,0,0,0,889.9,87.2Z"/>
    <path class="cls-1"
          d="M977,76.91a53,53,0,0,1,5.82-20,50.83,50.83,0,0,1,11.94-15,46.23,46.23,0,0,1,16.38-9,50.22,50.22,0,0,1,37.84,3.7,46.38,46.38,0,0,1,14.34,11.95,50.75,50.75,0,0,1,8.8,17,52.68,52.68,0,0,1,1.85,20.72,52.9,52.9,0,0,1-5.82,20,50.67,50.67,0,0,1-11.94,15,46.12,46.12,0,0,1-16.37,8.95,50.24,50.24,0,0,1-37.85-3.7,46.24,46.24,0,0,1-14.34-12,50.75,50.75,0,0,1-8.8-17A52.64,52.64,0,0,1,977,76.91Zm16,1.56a35.41,35.41,0,0,0,1.22,13.87,33.66,33.66,0,0,0,5.9,11.34,31.46,31.46,0,0,0,9.62,8,32.12,32.12,0,0,0,36.17-3.55,33.49,33.49,0,0,0,8-10A37.53,37.53,0,0,0,1056.54,71a33.52,33.52,0,0,0-5.89-11.41,32.54,32.54,0,0,0-34.81-10.48,31.49,31.49,0,0,0-11,6,33.42,33.42,0,0,0-8,10.05A35.34,35.34,0,0,0,993,78.47Z"/>
    <path class="cls-1"
          d="M1114.06,116.83l11.78,3.08-9,13.09-6.55-1.71-4.6,17.6-15.58-4.07,4.6-17.6-29.2-7.63,29.37-45.51,12.83,3.35,7.56-28.92,15.58,4.07Zm-15.59-4.07,7.66-29.33-17,26.9Z"/>
    <path class="cls-1"
          d="M1437.09,459.55l17.77-3.44c-33.45-164.7-150.6-299-305.08-356.52l-4.27,17.73C1293.14,173.11,1405,301.82,1437.09,459.55Z"/>
    <path class="cls-1"
          d="M1375.9,391.7c-23.31-22.22-55.43-31.8-97.1-24.23l15-66.24-89.14-36-84.51-1.13-10.42-7,3.44-81.34L850.42,204.93,825,286.27l-177.82.06A423.71,423.71,0,0,1,819.24,157.84L815.4,142A440.08,440.08,0,0,0,626.51,286.33h-15.7v-5.81h-7.13A466.88,466.88,0,0,1,810.07,119.88l-4.29-17.76A485.09,485.09,0,0,0,577.64,286.35H570.3l-3.47,15.11-12.74-7-6.94,26.72-8.86-5.92A45.07,45.07,0,0,0,527.52,310l-6.33-2.12a6.93,6.93,0,0,0-3.93-.16c-12,3.11-13.85,14-9.46,23.95l-72.93,0c-8.11,0-15.15,18.94-17.35,44.15-35.66,10.21-56,55.56-62.48,132.48-50.93,11.63-37,46.49-2.3,51.12v24.4h47.46c2.78,25.67,17.93,52.15,35.36,69.58l175.79-34.12c.25-.62.49-1.23.71-1.83L554.19,607l120.57,0,63.49-12.32V565.15a250.9,250.9,0,0,0,7.09,28.15l62.86-12.2A172.44,172.44,0,0,1,803.06,539c0-67.06,37-121.43,82.73-121.44s82.79,54.33,82.81,121.39c0,3.74-.12,7.44-.34,11.09l95.68-18.58c-8.3-7.52-17.92-16.74-28.79-28-23-23.72-24.57-28.59-49.79-53.43-13.33-13.13-25.49-24.18-42.84-34.84-13.1-8-23.2-14.11-38.21-16.26-20.85-3-37.54,3-42.83,5.82-22,11.63-15.05,7-39.35,30.23-27.78,32.54-59,63.92-119.23,39.54L731.83,435l-67.12,73.22H638.09l.57-1.74a243.22,243.22,0,0,1,9.26-23.24c4.24-9.23,8.23-16.36,12.72-24.41,1.84-3.29,4.43-7.92,8.1-13.94,1.76-2.89,7.56-12.31,16.2-24.41,2.53-3.53,5.79-8.08,10.42-13.94a182.2,182.2,0,0,1,13.88-16.27,145.46,145.46,0,0,1,16.21-13.95c7.3-5.67,14.65-11.38,25.46-17.44,10.14-5.68,17.84-8.59,28.94-12.79a127.85,127.85,0,0,1,26.62-7A125.74,125.74,0,0,1,835.41,338c13.42,1.15,23,4.41,33.57,8.13a222.67,222.67,0,0,1,45.16,22.06c14.83,9.37,25,18.14,33.58,25.55,5.42,4.7,13.34,12.49,28.95,27.88,16.83,16.59,25.25,24.89,31.26,31.36,14.87,16,12.62,15.44,26.64,30.2,7.91,8.33,8.32,8.18,30.11,30.2,9.82,9.93,10.81,11,15,15l24.16-4.69-1-.5a258.2,258.2,0,0,1-44-30.19,335.8,335.8,0,0,1,2.3-55.77,303.9,303.9,0,0,1,8.09-41.83,241.91,241.91,0,0,1,13.88-38.35c5.33-11.35,8.07-17.16,13.89-24.41,0,0,14.25-17.75,32.4-23.24,1.65-.5,3.29-.81,3.29-.81,1-.18,1.83-.29,2.5-.36l81,31.35,15-51.13,57.89,19.74q-6.95,30.21-13.88,60.42a84.86,84.86,0,0,0-22,4.65,87.2,87.2,0,0,0-35.88,24.41c-8.48,9.61-12.57,18.57-17.36,29.06a113.59,113.59,0,0,0-10.4,37.18c-2.74,22.47.17,30.75-4.14,43.92l45.73-8.88c1.7-11.63,3.83-21.64,5.87-29.83,6.16-24.63,12.74-37.79,16.2-44.15,5.89-10.86,15-27.18,32.4-38.36a64.69,64.69,0,0,1,38.77-11.05,64.88,64.88,0,0,1,19.69,3.48c7.55,2.67,12.18,6.09,19.68,11.62a137.79,137.79,0,0,1,17.4,15.51c.53,1.51,1,3,1.55,4.54-1.84-1.47-3.54-2.72-5-3.79a68.51,68.51,0,0,0-11.58-7,49.6,49.6,0,0,0-15-4.64c-3.33-.43-6.47-.29-12.74,0a83.21,83.21,0,0,0-12.73,1.17,62.57,62.57,0,0,0-13.89,4.65A106.5,106.5,0,0,0,1291,413.94c-6.22,4.74-14.7,11.29-23.14,22.08-6.54,8.36-10,15.42-13.89,23.24a190.49,190.49,0,0,0-13.78,38l13.3-2.58c12.73-34.28,37.2-57.49,65.31-57.5,21.19,0,40.32,13.18,53.92,34.35l41.68-8.09q-1.26-4.83-2.68-9.48c-30.27-144.31-134.16-262.27-271.49-314.55l-3.82,15.88C1246.07,197.73,1333.34,283.8,1375.9,391.7ZM862,217.71l238.46-30.28L1097,252.49c-31.41-17.36-57.88-11.6-86.82,8.16l-55.57,3.51c-40.52-16.26-76.4-3.47-92.6,23.26H843.5ZM579.57,325.85,606.19,320c-25.39,41.11-10.39,96.45,10.45,104.57,0,0-61.35,0-47,65.08h-7.34c3.46-15.1-4.65-32.53-12.75-37.17Zm35.59,144.7c0,17.65-7.78,32.53-20.24,32.54s-22.58-14.3-22.59-31.95,10.1-31.95,22.57-32S615.16,452.9,615.16,470.55Zm-59.85,9.26c0,11.87-6.48,21.5-14.47,21.5s-14.47-9.62-14.47-21.49,6.47-21.5,14.46-21.5S555.3,467.94,555.31,479.81Zm2.27-147-22,106.9-11-73.25a23.37,23.37,0,0,0-20.1-22.4L482.33,341ZM514.79,481c0,11.87-6.47,21.49-14.46,21.49s-14.48-9.61-14.48-21.49,6.47-21.49,14.46-21.5S514.79,469.11,514.79,481ZM480.44,470.4c0,17.65-7.78,32.53-20.25,32.54s-22.57-14.3-22.58-31.95,10.1-31.95,22.56-32S480.44,452.75,480.44,470.4ZM439.5,337.51c9.59,0,17.37,17.17,17.37,38.34s-7.76,38.35-17.35,38.35S422.15,397,422.15,375.86,429.91,337.52,439.5,337.51Zm-23.14,51.13c1.16,12.79,3.48,18.59,9.27,26.73-25.17,20.07-37.58,51.55-46.28,89.48h-9.26Q371,430.74,416.36,388.64Zm318.2,126.55a56,56,0,0,1,6.48.34c15.56,1.8,33.65,12,33.24,20.56-.36,7.6-15.17,15.61-35.88,17.44l-375.26-1c-16.19,0-34.71-4.66-34.71-18.6.53-3.16,1.91-18.59,34.72-18.6ZM627.64,414.14c-12.47,0-22.58-22.1-22.59-49.37s10.09-49.39,22.56-49.39,22.58,22.1,22.59,49.37S640.11,414.14,627.64,414.14Zm428.9-14.07a239.5,239.5,0,0,0-3.45,90.63C989.4,415.19,929.18,345.5,836.56,325.77l242,16.2A236.88,236.88,0,0,0,1056.54,400.07Zm39.34-73.21C940.75,319.93,790.26,313,635.13,306.08l-47.46,10.47,5.78-24.4L1108.6,292c-2.3-15.17-16.77-26.13-33.59-41.81,30.27,13.57,48,26.78,57.9,52.26C1119,305.93,1104.4,313.69,1095.88,326.86Z"/>
    <path class="cls-1"
          d="M885.22,443.11c-31.33,0-56.71,41.63-56.69,93a143.26,143.26,0,0,0,5.52,40l106.7-20.71A150.25,150.25,0,0,0,942,536C942,484.71,916.55,443.1,885.22,443.11Z"/>
    <path class="cls-1"
          d="M1319.34,460.4c-15.54,0-29.48,11.24-39,29.05l69-13.39C1340.85,466.19,1330.5,460.4,1319.34,460.4Z"/>
    <path class="cls-1" d="M1210.62,928.8q10.11-6.31,19.86-13.16L1169,816.8l-25,4.87Z"/>
    <path class="cls-1" d="M1288,793.65l38.62,29q7.17-9.51,13.81-19.41l-20.92-15.69Z"/>
    <path class="cls-1" d="M1064.48,985.91q11.76-2.22,23.27-5.09L1060,838l-23.38,4.55Z"/>
    <path class="cls-1" d="M907.11,986.42q11.67,2.13,23.56,3.63l25.58-131.82L931,863.14Z"/>
    <path class="cls-1" d="M760.23,930.09q10.13,6.24,20.63,11.93l35-56.46L784,891.77Z"/>
</svg>
