<?xml version="1.0" encoding="UTF-8" standalone="no"?>
<svg width="545px" height="70px" viewBox="0 0 545 70" version="1.1" xmlns="http://www.w3.org/2000/svg" xmlns:xlink="http://www.w3.org/1999/xlink">
    <!-- Generator: Sketch 50.2 (55047) - http://www.bohemiancoding.com/sketch -->
    <title>лого</title>
    <desc>Created with Sketch.</desc>
    <defs></defs>
    <g id="лого" stroke="none" stroke-width="1" fill="none" fill-rule="evenodd">
        <polygon id="Fill-1" fill="#FFEC00" points="5.91 5.984 37.051 3.051 67.699 0.164 67.699 0.117 67.945 0.141 68.188 0.117 68.188 0.164 130.469 5.984 99.082 8.918 68.188 11.809 68.188 11.852 67.945 11.832 67.699 11.852 67.699 11.809 37.051 8.918"></polygon>
        <polygon id="Stroke-2" stroke="#FFEC00" stroke-width="0.216" points="5.91 5.984 37.051 3.051 67.699 0.164 67.699 0.117 67.945 0.141 68.188 0.117 68.188 0.164 130.469 5.984 99.082 8.918 68.188 11.809 68.188 11.852 67.945 11.832 67.699 11.852 67.699 11.809 37.051 8.918"></polygon>
        <polygon id="Fill-4" fill="#FFEC00" points="11.781 17.875 39.973 14.941 67.719 12.055 67.719 12.008 67.941 12.031 68.16 12.008 68.16 12.055 96.129 14.941 124.539 17.875 96.129 20.809 68.16 23.695 68.16 23.742 67.941 23.719 67.719 23.742 67.719 23.695 39.973 20.809"></polygon>
        <polygon id="Stroke-5" stroke="#FFEC00" stroke-width="0.216" points="11.781 17.875 39.973 14.941 67.719 12.055 67.719 12.008 67.941 12.031 68.16 12.008 68.16 12.055 96.129 14.941 124.539 17.875 96.129 20.809 68.16 23.695 68.16 23.742 67.941 23.719 67.719 23.742 67.719 23.695 39.973 20.809"></polygon>
        <polygon id="Fill-6" fill="#FFEC00" points="15.695 29.203 41.918 26.57 67.727 23.977 67.727 23.938 67.934 23.957 68.141 23.938 68.141 23.977 94.156 26.57 120.586 29.203 94.156 31.84 68.141 34.43 68.141 34.473 67.934 34.453 67.727 34.473 67.727 34.43 41.918 31.84"></polygon>
        <polygon id="Stroke-7" stroke="#FFEC00" stroke-width="0.216" points="15.695 29.203 41.918 26.57 67.727 23.977 67.727 23.938 67.934 23.957 68.141 23.938 68.141 23.977 94.156 26.57 120.586 29.203 94.156 31.84 68.141 34.43 68.141 34.473 67.934 34.453 67.727 34.473 67.727 34.43 41.918 31.84"></polygon>
        <polygon id="Fill-8" fill="#FFEC00" points="23.996 39.875 46.051 37.27 67.758 34.707 67.758 34.664 67.93 34.684 68.105 34.664 68.105 34.707 89.984 37.27 112.211 39.875 89.984 42.48 68.105 45.043 68.105 45.086 67.93 45.062 67.758 45.086 67.758 45.043 46.051 42.48"></polygon>
        <polygon id="Stroke-9" stroke="#FFEC00" stroke-width="0.216" points="23.996 39.875 46.051 37.27 67.758 34.707 67.758 34.664 67.93 34.684 68.105 34.664 68.105 34.707 89.984 37.27 112.211 39.875 89.984 42.48 68.105 45.043 68.105 45.086 67.93 45.062 67.758 45.086 67.758 45.043 46.051 42.48"></polygon>
        <polygon id="Fill-10" fill="#FFEC00" points="37.098 48.973 52.582 47.113 67.82 45.281 67.82 45.254 67.945 45.266 68.066 45.254 68.066 45.281 83.43 47.113 99.035 48.969 83.43 50.828 68.066 52.66 68.066 52.688 67.945 52.676 67.82 52.688 67.82 52.66 52.582 50.828"></polygon>
        <polygon id="Stroke-11" stroke="#FFEC00" stroke-width="0.216" points="37.098 48.973 52.582 47.113 67.82 45.281 67.82 45.254 67.945 45.266 68.066 45.254 68.066 45.281 83.43 47.113 99.035 48.969 83.43 50.828 68.066 52.66 68.066 52.688 67.945 52.676 67.82 52.688 67.82 52.66 52.582 50.828"></polygon>
        <polygon id="Fill-12" fill="#FFEC00" points="51.895 56.582 59.953 54.723 67.887 52.891 67.887 52.863 67.949 52.879 68.016 52.863 68.016 52.891 76.012 54.723 84.133 56.582 76.012 58.441 68.016 60.27 68.016 60.301 67.949 60.285 67.887 60.301 67.887 60.27 59.953 58.441"></polygon>
        <g id="Group-16" transform="translate(3.000000, 4.000000)">
            <polygon id="Stroke-13" stroke="#FFEC00" stroke-width="0.216" points="48.895 52.582 56.953 50.723 64.887 48.891 64.887 48.863 64.949 48.879 65.016 48.863 65.016 48.891 73.012 50.723 81.133 52.582 73.012 54.441 65.016 56.27 65.016 56.301 64.949 56.285 64.887 56.301 64.887 56.27 56.953 54.441"></polygon>
            <path d="M130.387,1.078 C120.582,35.996 95.484,60.926 65.996,61.105 C36.25,61.289 10.766,36.234 0.852,0.957" id="Stroke-15" stroke="#009FE0" stroke-width="8"></path>
        </g>
        <path d="M173.016,63.387 L173.016,5.777 C173.016,3.641 173.77,2.582 175.262,2.582 L193.164,2.582 C194.645,2.582 195.398,3.641 195.398,5.777 C195.398,7.91 194.645,8.988 193.164,8.988 L177.496,8.988 L177.496,28.184 L188.684,28.184 C190.18,28.184 190.918,29.246 190.918,31.379 C190.918,33.516 190.18,34.59 188.684,34.59 L177.496,34.59 L177.496,60.18 L193.164,60.18 C194.645,60.18 195.398,61.238 195.398,63.371 C195.398,65.508 194.645,66.582 193.164,66.582 L175.262,66.582 C173.77,66.582 173.016,65.523 173.016,63.387 Z M240.48,31.047 C244.742,34.672 246.871,40.117 246.871,47.383 C246.871,52.68 245.562,57.215 242.934,60.957 C240.309,64.711 237.148,66.582 233.445,66.582 L222.246,66.582 C220.75,66.582 220.012,65.523 220.012,63.387 L220.012,5.777 C220.012,3.641 220.75,2.582 222.246,2.582 L233.434,2.582 C236.582,2.582 239.234,4.121 241.383,7.215 C243.547,10.293 244.625,14.086 244.625,18.586 C244.625,23.699 243.246,27.855 240.48,31.047 Z M224.488,8.988 L224.488,28.184 L233.434,28.184 C235.285,28.184 236.871,27.242 238.18,25.371 C239.488,23.5 240.145,21.234 240.145,18.586 C240.145,15.938 239.488,13.672 238.18,11.801 C236.871,9.93 235.285,8.988 233.434,8.988 L224.488,8.988 Z M224.488,34.59 L224.488,60.18 L233.445,60.18 C235.945,60.18 238.062,58.938 239.801,56.469 C241.523,54.004 242.391,50.977 242.391,47.383 C242.391,43.793 241.523,40.766 239.801,38.297 C238.062,35.832 235.945,34.59 233.445,34.59 L224.488,34.59 Z M271.473,2.582 L282.664,2.582 C286.387,2.582 289.559,4.453 292.176,8.176 C294.777,11.914 296.086,16.449 296.086,21.781 C296.086,27.473 294.848,32.09 292.359,35.648 C289.871,39.207 286.645,40.98 282.664,40.98 L273.719,40.98 L273.719,63.387 C273.719,65.523 272.977,66.582 271.484,66.582 C269.992,66.582 269.238,65.523 269.238,63.387 L269.238,5.777 C269.238,3.641 269.98,2.582 271.473,2.582 Z M273.719,8.988 L273.719,34.574 L282.664,34.574 C285.172,34.574 287.293,33.332 289.016,30.867 C290.738,28.398 291.609,25.371 291.609,21.781 C291.609,18.188 290.738,15.16 289.016,12.695 C287.293,10.227 285.172,8.988 282.664,8.988 L273.719,8.988 Z M340.836,47.383 L340.836,21.781 C340.836,18.207 339.969,15.16 338.242,12.695 C336.52,10.227 334.402,8.988 331.891,8.988 C329.379,8.988 327.262,10.227 325.535,12.695 C323.812,15.16 322.945,18.207 322.945,21.781 L322.945,47.383 C322.945,50.957 323.812,54.004 325.535,56.469 C327.262,58.938 329.379,60.18 331.891,60.18 C334.402,60.18 336.52,58.938 338.242,56.469 C339.969,54.004 340.836,50.957 340.836,47.383 Z M345.312,47.383 C345.312,52.68 344.008,57.215 341.379,60.957 C338.762,64.711 335.594,66.582 331.891,66.582 C328.188,66.582 325.016,64.711 322.402,60.957 C319.773,57.215 318.465,52.68 318.465,47.383 L318.465,21.781 C318.465,16.484 319.773,11.949 322.402,8.207 C325.016,4.453 328.188,2.582 331.891,2.582 C335.617,2.582 338.785,4.453 341.402,8.176 C344.008,11.914 345.312,16.449 345.312,21.781 L345.312,47.383 Z M390.074,2.582 C391.555,2.582 392.309,3.641 392.309,5.777 C392.309,7.91 391.555,8.988 390.074,8.988 L381.117,8.988 C378.535,8.988 376.605,10.574 375.32,13.738 C374.707,15.227 374.406,16.832 374.406,18.586 L374.406,50.578 C374.406,53.227 375.066,55.492 376.375,57.363 C377.68,59.234 379.266,60.18 381.117,60.18 L390.074,60.18 C391.555,60.18 392.309,61.238 392.309,63.371 C392.309,65.508 391.555,66.582 390.074,66.582 L381.117,66.582 C378.027,66.582 375.379,65.027 373.203,61.898 C371.016,58.789 369.926,55.016 369.926,50.578 L369.926,18.586 C369.926,14.152 371.016,10.375 373.203,7.266 C375.379,4.137 378.027,2.582 381.117,2.582 L390.074,2.582 Z M437.391,31.047 C441.652,34.672 443.781,40.117 443.781,47.383 C443.781,52.68 442.473,57.215 439.848,60.957 C437.219,64.711 434.059,66.582 430.355,66.582 L419.156,66.582 C417.664,66.582 416.922,65.523 416.922,63.387 L416.922,5.777 C416.922,3.641 417.664,2.582 419.156,2.582 L430.344,2.582 C433.492,2.582 436.145,4.121 438.297,7.215 C440.461,10.293 441.535,14.086 441.535,18.586 C441.535,23.699 440.16,27.855 437.391,31.047 Z M421.402,8.988 L421.402,28.184 L430.344,28.184 C432.195,28.184 433.781,27.242 435.09,25.371 C436.398,23.5 437.059,21.234 437.059,18.586 C437.059,15.938 436.398,13.672 435.09,11.801 C433.781,9.93 432.195,8.988 430.344,8.988 L421.402,8.988 Z M421.402,34.59 L421.402,60.18 L430.355,60.18 C432.855,60.18 434.973,58.938 436.711,56.469 C438.434,54.004 439.301,50.977 439.301,47.383 C439.301,43.793 438.434,40.766 436.711,38.297 C434.973,35.832 432.855,34.59 430.355,34.59 L421.402,34.59 Z M468.383,63.387 L468.383,5.777 C468.383,3.641 469.133,2.582 470.629,2.582 L488.531,2.582 C490.012,2.582 490.762,3.641 490.762,5.777 C490.762,7.91 490.012,8.988 488.531,8.988 L472.863,8.988 L472.863,28.184 L484.051,28.184 C485.543,28.184 486.285,29.246 486.285,31.379 C486.285,33.516 485.543,34.59 484.051,34.59 L472.863,34.59 L472.863,60.18 L488.531,60.18 C490.012,60.18 490.762,61.238 490.762,63.371 C490.762,65.508 490.012,66.582 488.531,66.582 L470.629,66.582 C469.133,66.582 468.383,65.523 468.383,63.387 Z M515.367,5.777 C515.367,3.641 516.117,2.582 517.609,2.582 L539.98,2.582 C541.473,2.582 542.223,3.641 542.223,5.777 C542.223,7.91 541.473,8.988 539.98,8.988 L531.035,8.988 L531.035,63.387 C531.035,65.523 530.293,66.582 528.801,66.582 C527.309,66.582 526.555,65.523 526.555,63.387 L526.555,8.988 L517.609,8.988 C516.117,8.988 515.367,7.91 515.367,5.777 Z" id="Fill-17" fill="#009FE0"></path>
        <path d="M173.016,63.387 L173.016,5.777 C173.016,3.641 173.77,2.582 175.262,2.582 L193.164,2.582 C194.645,2.582 195.398,3.641 195.398,5.777 C195.398,7.91 194.645,8.988 193.164,8.988 L177.496,8.988 L177.496,28.184 L188.684,28.184 C190.18,28.184 190.918,29.246 190.918,31.379 C190.918,33.516 190.18,34.59 188.684,34.59 L177.496,34.59 L177.496,60.18 L193.164,60.18 C194.645,60.18 195.398,61.238 195.398,63.371 C195.398,65.508 194.645,66.582 193.164,66.582 L175.262,66.582 C173.77,66.582 173.016,65.523 173.016,63.387 Z M240.48,31.047 C244.742,34.672 246.871,40.117 246.871,47.383 C246.871,52.68 245.562,57.215 242.934,60.957 C240.309,64.711 237.148,66.582 233.445,66.582 L222.246,66.582 C220.75,66.582 220.012,65.523 220.012,63.387 L220.012,5.777 C220.012,3.641 220.75,2.582 222.246,2.582 L233.434,2.582 C236.582,2.582 239.234,4.121 241.383,7.215 C243.547,10.293 244.625,14.086 244.625,18.586 C244.625,23.699 243.246,27.855 240.48,31.047 Z M224.488,8.988 L224.488,28.184 L233.434,28.184 C235.285,28.184 236.871,27.242 238.18,25.371 C239.488,23.5 240.145,21.234 240.145,18.586 C240.145,15.938 239.488,13.672 238.18,11.801 C236.871,9.93 235.285,8.988 233.434,8.988 L224.488,8.988 Z M224.488,34.59 L224.488,60.18 L233.445,60.18 C235.945,60.18 238.062,58.938 239.801,56.469 C241.523,54.004 242.391,50.977 242.391,47.383 C242.391,43.793 241.523,40.766 239.801,38.297 C238.062,35.832 235.945,34.59 233.445,34.59 L224.488,34.59 Z M271.473,2.582 L282.664,2.582 C286.387,2.582 289.559,4.453 292.176,8.176 C294.777,11.914 296.086,16.449 296.086,21.781 C296.086,27.473 294.848,32.09 292.359,35.648 C289.871,39.207 286.645,40.98 282.664,40.98 L273.719,40.98 L273.719,63.387 C273.719,65.523 272.977,66.582 271.484,66.582 C269.992,66.582 269.238,65.523 269.238,63.387 L269.238,5.777 C269.238,3.641 269.98,2.582 271.473,2.582 Z M273.719,8.988 L273.719,34.574 L282.664,34.574 C285.172,34.574 287.293,33.332 289.016,30.867 C290.738,28.398 291.609,25.371 291.609,21.781 C291.609,18.188 290.738,15.16 289.016,12.695 C287.293,10.227 285.172,8.988 282.664,8.988 L273.719,8.988 Z M340.836,47.383 L340.836,21.781 C340.836,18.207 339.969,15.16 338.242,12.695 C336.52,10.227 334.402,8.988 331.891,8.988 C329.379,8.988 327.262,10.227 325.535,12.695 C323.812,15.16 322.945,18.207 322.945,21.781 L322.945,47.383 C322.945,50.957 323.812,54.004 325.535,56.469 C327.262,58.938 329.379,60.18 331.891,60.18 C334.402,60.18 336.52,58.938 338.242,56.469 C339.969,54.004 340.836,50.957 340.836,47.383 Z M345.312,47.383 C345.312,52.68 344.008,57.215 341.379,60.957 C338.762,64.711 335.594,66.582 331.891,66.582 C328.188,66.582 325.016,64.711 322.402,60.957 C319.773,57.215 318.465,52.68 318.465,47.383 L318.465,21.781 C318.465,16.484 319.773,11.949 322.402,8.207 C325.016,4.453 328.188,2.582 331.891,2.582 C335.617,2.582 338.785,4.453 341.402,8.176 C344.008,11.914 345.312,16.449 345.312,21.781 L345.312,47.383 Z M390.074,2.582 C391.555,2.582 392.309,3.641 392.309,5.777 C392.309,7.91 391.555,8.988 390.074,8.988 L381.117,8.988 C378.535,8.988 376.605,10.574 375.32,13.738 C374.707,15.227 374.406,16.832 374.406,18.586 L374.406,50.578 C374.406,53.227 375.066,55.492 376.375,57.363 C377.68,59.234 379.266,60.18 381.117,60.18 L390.074,60.18 C391.555,60.18 392.309,61.238 392.309,63.371 C392.309,65.508 391.555,66.582 390.074,66.582 L381.117,66.582 C378.027,66.582 375.379,65.027 373.203,61.898 C371.016,58.789 369.926,55.016 369.926,50.578 L369.926,18.586 C369.926,14.152 371.016,10.375 373.203,7.266 C375.379,4.137 378.027,2.582 381.117,2.582 L390.074,2.582 Z M437.391,31.047 C441.652,34.672 443.781,40.117 443.781,47.383 C443.781,52.68 442.473,57.215 439.848,60.957 C437.219,64.711 434.059,66.582 430.355,66.582 L419.156,66.582 C417.664,66.582 416.922,65.523 416.922,63.387 L416.922,5.777 C416.922,3.641 417.664,2.582 419.156,2.582 L430.344,2.582 C433.492,2.582 436.145,4.121 438.297,7.215 C440.461,10.293 441.535,14.086 441.535,18.586 C441.535,23.699 440.16,27.855 437.391,31.047 Z M421.402,8.988 L421.402,28.184 L430.344,28.184 C432.195,28.184 433.781,27.242 435.09,25.371 C436.398,23.5 437.059,21.234 437.059,18.586 C437.059,15.938 436.398,13.672 435.09,11.801 C433.781,9.93 432.195,8.988 430.344,8.988 L421.402,8.988 Z M421.402,34.59 L421.402,60.18 L430.355,60.18 C432.855,60.18 434.973,58.938 436.711,56.469 C438.434,54.004 439.301,50.977 439.301,47.383 C439.301,43.793 438.434,40.766 436.711,38.297 C434.973,35.832 432.855,34.59 430.355,34.59 L421.402,34.59 Z M468.383,63.387 L468.383,5.777 C468.383,3.641 469.133,2.582 470.629,2.582 L488.531,2.582 C490.012,2.582 490.762,3.641 490.762,5.777 C490.762,7.91 490.012,8.988 488.531,8.988 L472.863,8.988 L472.863,28.184 L484.051,28.184 C485.543,28.184 486.285,29.246 486.285,31.379 C486.285,33.516 485.543,34.59 484.051,34.59 L472.863,34.59 L472.863,60.18 L488.531,60.18 C490.012,60.18 490.762,61.238 490.762,63.371 C490.762,65.508 490.012,66.582 488.531,66.582 L470.629,66.582 C469.133,66.582 468.383,65.523 468.383,63.387 Z M515.367,5.777 C515.367,3.641 516.117,2.582 517.609,2.582 L539.98,2.582 C541.473,2.582 542.223,3.641 542.223,5.777 C542.223,7.91 541.473,8.988 539.98,8.988 L531.035,8.988 L531.035,63.387 C531.035,65.523 530.293,66.582 528.801,66.582 C527.309,66.582 526.555,65.523 526.555,63.387 L526.555,8.988 L517.609,8.988 C516.117,8.988 515.367,7.91 515.367,5.777 Z" id="Stroke-18" stroke="#009FE0" stroke-width="4.535" stroke-linecap="round" stroke-linejoin="round"></path>
    </g>
</svg>