<svg width="15" height="16" viewBox="0 0 15 16" fill="none" xmlns="http://www.w3.org/2000/svg">
<path d="M7.50187 0H7.49813C3.36281 0 0 3.588 0 8C0 9.75 0.52875 11.372 1.42781 12.689L0.493125 15.661L3.37594 14.678C4.56187 15.516 5.97656 16 7.50187 16C11.6372 16 15 12.411 15 8C15 3.589 11.6372 0 7.50187 0Z" fill="#4CAF50"/>
<path d="M11.8659 11.2969C11.685 11.8419 10.9668 12.2939 10.394 12.4259C10.0021 12.5149 9.49027 12.5859 7.76715 11.8239C5.56308 10.8499 4.14371 8.46094 4.03308 8.30594C3.92714 8.15094 3.14246 7.04094 3.14246 5.89294C3.14246 4.74494 3.68902 4.18594 3.90933 3.94594C4.09027 3.74894 4.38933 3.65894 4.67621 3.65894C4.76902 3.65894 4.85246 3.66394 4.92746 3.66794C5.14777 3.67794 5.2584 3.69194 5.40371 4.06294C5.58465 4.52794 6.02527 5.67594 6.07777 5.79394C6.13121 5.91194 6.18465 6.07194 6.10965 6.22694C6.03933 6.38694 5.97746 6.45794 5.86683 6.59394C5.75621 6.72994 5.65121 6.83394 5.54058 6.97994C5.43933 7.10694 5.32496 7.24294 5.45246 7.47794C5.57996 7.70794 6.02058 8.47494 6.66933 9.09094C7.50652 9.88594 8.18527 10.1399 8.42809 10.2479C8.60902 10.3279 8.82465 10.3089 8.95684 10.1589C9.12465 9.96594 9.33184 9.64594 9.54277 9.33094C9.69277 9.10494 9.88215 9.07694 10.0809 9.15694C10.2834 9.23194 11.355 9.79694 11.5753 9.91394C11.7956 10.0319 11.9409 10.0879 11.9943 10.1869C12.0468 10.2859 12.0468 10.7509 11.8659 11.2969Z" fill="#FAFAFA"/>
</svg>
