<svg width="48px" height="46px" viewBox="0 0 48 46" version="1.1" xmlns="http://www.w3.org/2000/svg" xmlns:xlink="http://www.w3.org/1999/xlink">
    <defs></defs>
    <g id="Page-1" stroke="none" stroke-width="1" fill="none" fill-rule="evenodd">
        <g id="1logosber" fill="#1A9F29" fill-rule="nonzero">
            <path d="M44,8.9 C43.5,8.2 43,7.5 42.5,6.8 L14.8,22.7 L1.4,15 C1.1,15.9 0.9,16.7 0.8,17.6 L14.9,25.7 L44,8.9 Z" id="Shape"></path>
            <path d="M14.8,28.7 L0.4,20.4 C0.3,20.9 0.3,21.5 0.3,22 C0.3,35.1 10.9,45.8 24.1,45.8 C37.2,45.8 47.9,35.2 47.9,22 C47.9,18.1 47,14.4 45.3,11.2 L14.8,28.7 Z" id="Shape"></path>
            <path d="M40.6,4.8 C39.9,4.1 39.2,3.6 38.5,3 L14.8,16.7 L3.4,10.2 C3,10.9 2.6,11.7 2.2,12.5 L14.7,19.7 L40.6,4.8 Z" id="Shape"></path>
            <path d="M36.1,1.4 C35.2,0.9 34.3,0.4 33.3,0 L14.8,10.7 L6.5,6 C5.9,6.6 5.4,7.3 4.8,8 L14.7,13.7 L36.1,1.4 Z" id="Shape"></path>
        </g>
    </g>
</svg>