<svg width="35" height="35" viewBox="0 0 35 35" fill="none" xmlns="http://www.w3.org/2000/svg">
<path d="M17.5 35C27.165 35 35 27.165 35 17.5C35 7.83502 27.165 0 17.5 0C7.83502 0 0 7.83502 0 17.5C0 27.165 7.83502 35 17.5 35Z" fill="#039BE5"/>
<path d="M8.00773 17.1206L24.8807 10.615C25.6638 10.3321 26.3477 10.8061 26.094 11.9902L26.0955 11.9888L23.2225 25.5236C23.0096 26.4832 22.4394 26.7165 21.6417 26.2644L17.2667 23.04L15.1565 25.0729C14.9231 25.3063 14.7263 25.5032 14.2742 25.5032L14.5848 21.0509L22.6932 13.7256C23.0461 13.415 22.6144 13.24 22.1492 13.5492L12.129 19.8579L7.80939 18.5104C6.87168 18.2129 6.85127 17.5727 8.00773 17.1206V17.1206Z" fill="white"/>
</svg>
