<svg xmlns="http://www.w3.org/2000/svg" width="40" height="40" viewBox="0 0 40 40" fill="#da3b64"><path class="cls-1" d="M595,1695h0l-2.719,9.97L591,1706H573l-1.279-1.02L569,1695h0v-1h0v-1h0.092a6.987,6.987,0,0,1,5.908-5.92v2.02a5,5,0,0,0-3.566,2.9l4.566,4.57,5.286-5.29a1.024,1.024,0,0,1,1.428,0l5.286,5.29,4.566-4.57a5,5,0,0,0-3.566-2.9V1689a3.961,3.961,0,0,1-3.767-5.3,17.57,17.57,0,0,1-6.466,0A3.961,3.961,0,0,1,575,1689v-2a2,2,0,0,0,0-4v-2c0.047,0,.091.01,0.137,0.01,0.634-1.14,3.463-2.01,6.863-2.01s6.229,0.87,6.863,2.01c0.046,0,.09-0.01.137-0.01v2a2,2,0,0,0,0,4v0.08a6.975,6.975,0,0,1,5.86,5.71L595,1693h0v2Zm-13-14c-2.762,0-5,.22-5,0.5s2.238,0.5,5,.5,5-.22,5-0.5S584.761,1681,582,1681Zm-10.957,13.43c0.016,0.16.02,0.32,0.049,0.48l-0.03.03,1.434,5.13,2.1-2.1Zm4.957,4.95-2.889,2.89,0.483,1.73h6.971l0.026-.03Zm6-6-4.592,4.59,4.592,4.59,4.591-4.59Zm1.408,10.59,0.027,0.03h6.971l0.482-1.73L588,1699.38Zm6-6,2.094,2.1,1.4-5.04-0.011-.01a4.91,4.91,0,0,0,.061-0.59ZM578,1672a1,1,0,1,1-1,1A1,1,0,0,1,578,1672Zm-3,3a1,1,0,1,1-1,1A1,1,0,0,1,575,1675Zm-3-3a1,1,0,1,1-1,1A1,1,0,0,1,572,1672Zm0,12a1,1,0,1,1-1,1A1,1,0,0,1,572,1684Zm0-6a1,1,0,1,1-1,1A1,1,0,0,1,572,1678Zm-12,8a1,1,0,1,1,1-1A1,1,0,0,1,560,1686Zm0-12a1,1,0,1,1,1-1A1,1,0,0,1,560,1674Zm0,6a1,1,0,1,1,1-1A1,1,0,0,1,560,1680Zm3,21a1,1,0,1,1,1-1A1,1,0,0,1,563,1701Zm0-6a1,1,0,1,1,1-1A1,1,0,0,1,563,1695Zm0-6a1,1,0,1,1,1-1A1,1,0,0,1,563,1689Zm0-12a1,1,0,1,1,1-1A1,1,0,0,1,563,1677Zm0,6a1,1,0,1,1,1-1A1,1,0,0,1,563,1683Zm3,15a1,1,0,1,1,1-1A1,1,0,0,1,566,1698Zm0-6a1,1,0,1,1,1-1A1,1,0,0,1,566,1692Zm0-6a1,1,0,1,1,1-1A1,1,0,0,1,566,1686Zm0-12a1,1,0,1,1,1-1A1,1,0,0,1,566,1674Zm0,6a1,1,0,1,1,1-1A1,1,0,0,1,566,1680Zm3,9a1,1,0,1,1,1-1A1,1,0,0,1,569,1689Zm0-12a1,1,0,1,1,1-1A1,1,0,0,1,569,1677Zm0,6a1,1,0,1,1,1-1A1,1,0,0,1,569,1683Zm13-6a0.908,0.908,0,0,0-1,0,1,1,0,0,1-.065-1.99,7.991,7.991,0,0,0-3.753-5.82,9.909,9.909,0,0,1-1.229.58,0.9,0.9,0,0,1,.047.23,1,1,0,0,1-1.925.37A21.089,21.089,0,0,1,569,1671h0a21.1,21.1,0,0,1-5.075-.63A1,1,0,0,1,562,1670a0.9,0.9,0,0,1,.047-0.23,9.974,9.974,0,0,1-1.233-.58,8.011,8.011,0,0,0-3.749,5.82,0.987,0.987,0,0,1,.029,1.97c0.021,0.16.017,0.33,0.046,0.49l-0.029.03,2.632,12.55A1.094,1.094,0,0,1,560,1690a1,1,0,0,1,1,1,0.985,0.985,0,0,1-.855.97l2.523,12.03H566a1,1,0,1,1,1-1,1,1,0,0,1-1,1h3a1,1,0,0,1,0,2h-7l-1.209-1.01-5.7-27.49,0.029-.01A9.931,9.931,0,0,1,565,1666h8a10,10,0,0,1,10,10A1,1,0,0,1,582,1677Zm-9-9h-8a8.13,8.13,0,0,0-1.987.26,24.557,24.557,0,0,0,11.966,0A8.071,8.071,0,0,0,573,1668Z" transform="translate(-555 -1666)"/><path class="cls-2" d="M588,1698l-6-6-6,6-5-5v-2l2-2,3-1,1-1,1-2v-2h8v3l1,1,2,1,3,1,1,2v2Zm0,0,4,4-1,3H573l-1-1v-2l4-4,6,6Z" transform="translate(-555 -1666)"/></svg>